<?xml version="1.0" encoding="utf-8"?>
<!-- Generator: Adobe Illustrator 26.0.1, SVG Export Plug-In . SVG Version: 6.00 Build 0)  -->
<svg version="1.1" id="Layer_1" xmlns="http://www.w3.org/2000/svg" xmlns:xlink="http://www.w3.org/1999/xlink" x="0px" y="0px"
	 viewBox="0 0 1920 1080" style="enable-background:new 0 0 1920 1080;" xml:space="preserve">
<style type="text/css">
	.st0{fill:#1D1D1B;}
	.st1{fill:#FF0000;}
	.st2{fill:#E20613;}
</style>
<g>
	<g>
		<g>
			<g>
				<path class="st0" d="M595.48,650.53c8.04,4.77,14.37,11.29,19.02,19.59c4.64,8.31,6.96,17.55,6.96,27.74s-2.39,19.48-7.15,27.84
					c-4.79,8.36-11.31,14.93-19.61,19.7c-8.31,4.77-17.55,7.15-27.74,7.15c-10.19,0-19.45-2.38-27.74-7.15
					c-8.3-4.77-14.84-11.34-19.61-19.7c-4.77-8.36-7.15-17.64-7.15-27.84v-46.07c0-0.78,0.06-1.37,0.19-1.75v-43.92
					c0-2.22,0.69-4.05,2.06-5.49c1.37-1.44,3.17-2.15,5.39-2.15c2.22,0,4.05,0.72,5.49,2.15s2.15,3.27,2.15,5.49v57.45
					c4.58-6.29,10.4-11.22,17.45-14.8c7.05-3.59,14.84-5.39,23.32-5.39C578.46,643.37,587.44,645.76,595.48,650.53z M587.25,733.44
					c6.08-3.59,10.85-8.49,14.31-14.69s5.18-13.16,5.18-20.88c0-7.71-1.72-14.66-5.18-20.88c-3.46-6.21-8.23-11.07-14.31-14.6
					c-6.08-3.53-12.84-5.3-20.29-5.3c-10.32,0-19.11,3.27-26.37,9.81c-7.24,6.52-11.53,14.88-12.84,25.08c0,0.4-0.06,0.73-0.19,0.99
					c-0.13,1.05-0.19,2.68-0.19,4.9c0,7.72,1.72,14.68,5.18,20.88c3.46,6.21,8.2,11.1,14.21,14.69c6.01,3.61,12.75,5.39,20.2,5.39
					C574.4,738.83,581.17,737.05,587.25,733.44z"/>
			</g>
			<g>
				<path class="st0" d="M654.66,742.07c-5.03-6.33-7.55-14.47-7.55-24.41V605.93c0-2.22,0.72-4.02,2.15-5.39
					c1.44-1.37,3.21-2.06,5.3-2.06c2.22,0,4.02,0.69,5.39,2.06c1.37,1.37,2.06,3.17,2.06,5.39v111.74c0,5.62,1.15,10.19,3.43,13.72
					c2.28,3.54,5.2,5.3,8.73,5.3h4.9c1.96,0,3.53,0.69,4.71,2.06s1.77,3.17,1.77,5.39c0,2.22-0.83,4.02-2.46,5.39
					c-1.64,1.37-3.76,2.06-6.37,2.06h-2.55C666.2,751.58,659.7,748.41,654.66,742.07z"/>
			</g>
			<g>
				<path class="st0" d="M779.35,650.53c8.31,4.77,14.84,11.33,19.61,19.69c4.77,8.38,7.16,17.64,7.16,27.84v46.07
					c0,2.09-0.72,3.86-2.15,5.3c-1.45,1.44-3.27,2.15-5.5,2.15c-2.22,0-4.05-0.69-5.49-2.06c-1.44-1.37-2.15-3.17-2.15-5.39v-11.76
					c-4.58,6.27-10.39,11.2-17.44,14.8c-7.07,3.59-14.84,5.38-23.34,5.38c-9.92,0-18.9-2.38-26.95-7.15
					c-8.04-4.77-14.39-11.31-19.02-19.61c-4.64-8.3-6.96-17.55-6.96-27.74c0-10.19,2.38-19.46,7.15-27.84
					c4.77-8.36,11.31-14.92,19.61-19.69c8.3-4.77,17.55-7.16,27.74-7.16S771.06,645.76,779.35,650.53z M771.81,733.55
					c6.01-3.54,10.75-8.41,14.21-14.61c3.46-6.21,5.2-13.16,5.2-20.88c0-7.71-1.74-14.66-5.2-20.87s-8.2-11.1-14.21-14.71
					c-6.01-3.59-12.73-5.39-20.18-5.39s-14.21,1.8-20.29,5.39c-6.08,3.61-10.85,8.5-14.31,14.71s-5.2,13.16-5.2,20.87
					c0,7.72,1.74,14.68,5.2,20.88c3.46,6.21,8.23,11.07,14.31,14.61c6.08,3.53,12.84,5.28,20.29,5.28S765.79,737.08,771.81,733.55z"
					/>
			</g>
			<g>
				<path class="st0" d="M855.9,745.41c-8.1-4.77-14.49-11.31-19.11-19.61c-4.64-8.3-6.96-17.55-6.96-27.74
					c0-10.45,2.22-19.83,6.65-28.13c4.45-8.3,10.59-14.8,18.43-19.51c7.85-4.71,16.67-7.05,26.47-7.05
					c16.34,0,29.61,6.27,39.8,18.82c1.04,1.16,1.56,2.54,1.56,4.12c0,2.09-1.12,3.91-3.33,5.49c-1.18,0.78-2.41,1.18-3.72,1.18
					c-1.96,0-3.86-0.99-5.7-2.95c-3.91-4.31-8.23-7.55-12.94-9.7c-4.71-2.15-9.92-3.24-15.68-3.24c-7.18,0-13.59,1.74-19.21,5.2
					c-5.62,3.46-9.97,8.33-13.03,14.6c-3.08,6.27-4.61,13.34-4.61,21.17c0,7.72,1.64,14.68,4.9,20.88
					c3.27,6.21,7.85,11.07,13.74,14.61c5.87,3.53,12.6,5.28,20.18,5.28c10.45,0,18.89-2.81,25.29-8.42c1.71-1.44,3.46-2.15,5.3-2.15
					c1.56,0,3,0.53,4.31,1.56c1.83,1.56,2.74,3.33,2.74,5.3c0,1.69-0.65,3.13-1.95,4.31c-9.41,8.76-21.31,13.13-35.69,13.13
					C873.14,752.55,864,750.18,855.9,745.41z"/>
			</g>
			<g>
				<path class="st0" d="M1035.07,745.31c0,1.96-0.91,3.72-2.74,5.3c-1.56,1.16-3.13,1.75-4.69,1.75c-2.11,0-3.86-0.91-5.3-2.74
					l-40.39-49.6l-14.69,13.34v30.77c0,2.22-0.69,4.02-2.06,5.39c-1.37,1.37-3.17,2.06-5.39,2.06c-2.23,0-4.02-0.69-5.39-2.06
					c-1.37-1.37-2.06-3.17-2.06-5.39v-138.2c0-2.22,0.69-4.02,2.06-5.39c1.37-1.37,3.16-2.06,5.39-2.06c2.22,0,4.02,0.69,5.39,2.06
					c1.37,1.37,2.06,3.17,2.06,5.39v89.19l55.28-49.98c1.44-1.31,3-1.96,4.71-1.96c1.96,0,3.59,0.78,4.9,2.35
					c1.44,1.71,2.15,3.27,2.15,4.71c0,1.83-0.85,3.46-2.54,4.9l-39.21,35.48l40.78,50.19
					C1034.49,742.11,1035.07,743.6,1035.07,745.31z"/>
			</g>
			<g>
				<path class="st0" d="M1147.51,650.53c8.04,4.77,14.37,11.29,19.02,19.59c4.64,8.31,6.96,17.55,6.96,27.74
					s-2.39,19.48-7.15,27.84c-4.79,8.36-11.31,14.93-19.61,19.7c-8.31,4.77-17.55,7.15-27.74,7.15s-19.45-2.38-27.74-7.15
					c-8.3-4.77-14.84-11.34-19.61-19.7c-4.77-8.36-7.15-17.64-7.15-27.84v-46.07c0-0.78,0.06-1.37,0.19-1.75v-43.92
					c0-2.22,0.69-4.05,2.06-5.49c1.37-1.44,3.17-2.15,5.39-2.15c2.22,0,4.05,0.72,5.49,2.15s2.15,3.27,2.15,5.49v57.45
					c4.58-6.29,10.4-11.22,17.45-14.8c7.05-3.59,14.84-5.39,23.32-5.39C1130.48,643.37,1139.47,645.76,1147.51,650.53z
					 M1139.27,733.44c6.08-3.59,10.85-8.49,14.31-14.69s5.18-13.16,5.18-20.88c0-7.71-1.72-14.66-5.18-20.88
					c-3.46-6.21-8.23-11.07-14.31-14.6c-6.08-3.53-12.84-5.3-20.29-5.3c-10.32,0-19.11,3.27-26.37,9.81
					c-7.24,6.52-11.53,14.88-12.84,25.08c0,0.4-0.06,0.73-0.19,0.99c-0.13,1.05-0.19,2.68-0.19,4.9c0,7.72,1.72,14.68,5.18,20.88
					c3.46,6.21,8.2,11.1,14.21,14.69c6.01,3.61,12.75,5.39,20.2,5.39C1126.43,738.83,1133.2,737.05,1139.27,733.44z"/>
			</g>
			<g>
				<path class="st0" d="M1223.95,745.5c-8.31-4.71-14.8-11.2-19.51-19.51c-4.71-8.3-7.05-17.6-7.05-27.93
					c0-10.32,2.35-19.65,7.05-28.03c4.71-8.36,11.2-14.9,19.51-19.61c8.3-4.71,17.6-7.05,27.93-7.05c10.32,0,19.59,2.35,27.84,7.05
					c8.23,4.71,14.72,11.25,19.49,19.61c4.77,8.38,7.16,17.71,7.16,28.03c0,10.34-2.36,19.64-7.07,27.93
					c-4.71,8.31-11.2,14.8-19.49,19.51c-8.31,4.71-17.61,7.05-27.93,7.05C1241.55,752.55,1232.25,750.21,1223.95,745.5z
					 M1272.28,733.55c6-3.54,10.7-8.41,14.1-14.61c3.4-6.21,5.1-13.16,5.1-20.88c0-7.83-1.71-14.85-5.1-21.07
					c-3.4-6.21-8.1-11.07-14.1-14.6c-6.01-3.53-12.81-5.3-20.39-5.3c-7.45,0-14.21,1.77-20.29,5.3c-6.08,3.53-10.85,8.39-14.31,14.6
					c-3.46,6.22-5.2,13.24-5.2,21.07c0,7.72,1.74,14.68,5.2,20.88c3.46,6.21,8.23,11.07,14.31,14.61
					c6.08,3.53,12.84,5.28,20.29,5.28C1259.47,738.83,1266.26,737.08,1272.28,733.55z"/>
			</g>
			<g>
				<path class="st0" d="M1407.54,745.1c0,1.83-0.69,3.38-2.06,4.61c-1.37,1.24-2.92,1.87-4.61,1.87c-1.56,0-2.87-0.26-3.92-0.78
					c-1.04-0.53-2.03-1.44-2.94-2.74l-32.15-40.97l-33.33,42.15c-1.18,1.56-2.95,2.35-5.3,2.35c-2.09,0-3.76-0.65-4.99-1.96
					c-1.24-1.31-1.87-2.87-1.87-4.71c0-2.09,0.65-3.84,1.96-5.3l33.92-42.34l-32.16-40.78c-1.31-1.44-1.96-3.19-1.96-5.28
					c0-1.96,0.59-3.61,1.77-4.91c1.18-1.29,2.87-1.96,5.09-1.96c2.23,0,4.13,0.8,5.7,2.36l31.56,40.58l31.17-39.4
					c1.83-2.36,3.99-3.54,6.46-3.54c2.09,0,3.76,0.67,5.01,1.96c1.24,1.31,1.87,2.89,1.87,4.71c0,1.96-0.73,3.86-2.17,5.7
					l-32.53,40.38l33.33,42.74C1406.83,741.66,1407.54,743.41,1407.54,745.1z"/>
			</g>
		</g>
		<g>
			<g>
				<g>
					<path class="st1" d="M531.03,800.13c2.03,1.19,3.62,2.82,4.81,4.88c1.19,2.06,1.77,4.35,1.77,6.87v10.84
						c0,0.71-0.24,1.31-0.7,1.79c-0.47,0.46-1.08,0.7-1.79,0.7s-1.3-0.24-1.77-0.7c-0.46-0.47-0.7-1.08-0.7-1.79v-1.79
						c-1.14,1.39-2.52,2.47-4.13,3.26c-1.63,0.78-3.37,1.16-5.26,1.16c-2.34,0-4.45-0.59-6.35-1.74c-1.9-1.17-3.39-2.79-4.48-4.84
						c-1.08-2.06-1.63-4.35-1.63-6.89c0-2.52,0.59-4.81,1.76-6.87c1.17-2.06,2.79-3.69,4.84-4.88c2.06-1.17,4.34-1.77,6.82-1.77
						C526.74,798.36,529.01,798.96,531.03,800.13z M528.64,819.79c1.31-0.81,2.34-1.88,3.09-3.26c0.76-1.38,1.12-2.93,1.12-4.65
						c0-1.71-0.36-3.26-1.12-4.67c-0.74-1.39-1.77-2.49-3.09-3.28c-1.31-0.79-2.77-1.19-4.4-1.19c-1.61,0-3.09,0.4-4.4,1.19
						c-1.31,0.79-2.34,1.88-3.1,3.28c-0.76,1.41-1.14,2.96-1.14,4.67c0,1.73,0.38,3.28,1.14,4.65c0.76,1.38,1.79,2.45,3.1,3.26
						c1.31,0.79,2.79,1.19,4.4,1.19C525.87,820.98,527.33,820.58,528.64,819.79z"/>
				</g>
				<g>
					<path class="st1" d="M569.14,799.76c1.79,0.98,3.18,2.39,4.18,4.26c1.01,1.87,1.5,4.12,1.5,6.74v11.95
						c0,0.71-0.22,1.31-0.7,1.79c-0.47,0.46-1.06,0.7-1.77,0.7c-0.71,0-1.31-0.24-1.77-0.7c-0.47-0.47-0.71-1.08-0.71-1.79v-11.95
						c0-2.63-0.7-4.62-2.12-5.97c-1.41-1.35-3.28-2.01-5.6-2.01c-1.36,0-2.61,0.27-3.72,0.82c-1.12,0.55-1.99,1.3-2.63,2.23
						c-0.63,0.95-0.95,1.99-0.95,3.17v13.71c0,0.71-0.24,1.31-0.68,1.79c-0.46,0.46-1.06,0.7-1.8,0.7c-0.71,0-1.3-0.24-1.77-0.7
						c-0.47-0.47-0.71-1.08-0.71-1.79v-21.69c0-0.74,0.24-1.35,0.71-1.79c0.47-0.46,1.06-0.68,1.77-0.68c0.74,0,1.35,0.22,1.8,0.68
						c0.44,0.44,0.68,1.04,0.68,1.79v0.54c1.03-1.03,2.26-1.84,3.69-2.41c1.42-0.57,2.96-0.85,4.57-0.85
						C565.34,798.31,567.35,798.8,569.14,799.76z"/>
				</g>
				<g>
					<path class="st1" d="M600.72,820.98c0.41,0.46,0.6,1.03,0.6,1.74c0,0.71-0.27,1.3-0.79,1.76c-0.54,0.46-1.23,0.68-2.07,0.68
						h-0.87c-1.6,0-3.04-0.41-4.35-1.23c-1.31-0.84-2.34-1.96-3.09-3.39c-0.74-1.42-1.12-3.02-1.12-4.81v-12.01h-2.23
						c-0.68,0-1.23-0.19-1.66-0.59c-0.41-0.38-0.63-0.87-0.63-1.46c0-0.65,0.22-1.17,0.63-1.55c0.43-0.4,0.98-0.59,1.66-0.59h2.23
						v-7c0-0.71,0.22-1.3,0.68-1.76c0.46-0.46,1.04-0.68,1.76-0.68c0.71,0,1.3,0.22,1.74,0.68c0.46,0.46,0.68,1.04,0.68,1.76v7h4.13
						c0.68,0,1.23,0.19,1.66,0.59c0.41,0.38,0.63,0.9,0.63,1.55c0,0.59-0.22,1.08-0.63,1.46c-0.43,0.4-0.98,0.59-1.66,0.59h-4.13
						v12.01c0,1.3,0.36,2.39,1.08,3.26c0.71,0.87,1.58,1.31,2.63,1.31h1.65C599.81,820.3,600.3,820.52,600.72,820.98z"/>
				</g>
				<g>
					<path class="st1" d="M612.97,793.27c-0.63-0.63-0.95-1.38-0.95-2.26c0-0.87,0.32-1.61,0.95-2.25s1.39-0.95,2.26-0.95
						c0.87,0,1.63,0.32,2.26,0.95s0.95,1.38,0.95,2.25c0,0.89-0.32,1.63-0.95,2.26s-1.39,0.95-2.26,0.95
						C614.36,794.22,613.6,793.91,612.97,793.27z M613.46,824.44c-0.47-0.46-0.71-1.06-0.71-1.77v-21.64c0-0.74,0.24-1.35,0.71-1.79
						c0.46-0.46,1.06-0.68,1.77-0.68c0.74,0,1.35,0.22,1.8,0.68c0.44,0.44,0.68,1.04,0.68,1.79v21.64c0,0.71-0.24,1.31-0.68,1.77
						c-0.46,0.47-1.06,0.71-1.8,0.71C614.52,825.15,613.92,824.92,613.46,824.44z"/>
				</g>
				<g>
					<path class="st1" d="M653.25,799.7c0.24,0.33,0.35,0.71,0.35,1.14c0,0.28-0.08,0.6-0.25,0.92l-10.31,21.75
						c-0.49,1.06-1.23,1.6-2.23,1.6c-0.55,0-1.01-0.13-1.36-0.36c-0.36-0.24-0.68-0.66-0.98-1.23l-10.3-21.75
						c-0.13-0.25-0.19-0.54-0.19-0.87c0-0.87,0.44-1.54,1.36-1.99c0.28-0.16,0.63-0.24,1.01-0.24c0.4,0,0.76,0.09,1.12,0.32
						c0.35,0.21,0.63,0.51,0.82,0.9l8.47,18.24l8.36-18.24c0.19-0.4,0.47-0.7,0.85-0.9c0.36-0.22,0.76-0.32,1.19-0.32
						c0.43,0,0.79,0.08,1.12,0.24C652.7,799.08,653.03,799.35,653.25,799.7z"/>
				</g>
				<g>
					<path class="st1" d="M667.45,823.62c-2.04-1.14-3.62-2.74-4.76-4.78c-1.14-2.04-1.71-4.37-1.71-6.96c0-2.63,0.57-4.95,1.71-7
						c1.14-2.04,2.72-3.64,4.76-4.8c2.04-1.14,4.35-1.73,6.95-1.73c2.56,0,4.86,0.59,6.89,1.73c2.03,1.16,3.61,2.75,4.76,4.8
						s1.73,4.37,1.73,7c0,2.6-0.57,4.92-1.69,6.96c-1.14,2.04-2.72,3.64-4.75,4.78c-2.03,1.16-4.34,1.73-6.93,1.73
						C671.81,825.34,669.5,824.78,667.45,823.62z M678.85,819.8c1.31-0.78,2.34-1.85,3.07-3.23c0.73-1.38,1.09-2.94,1.09-4.7
						c0-1.74-0.36-3.32-1.09-4.72c-0.73-1.39-1.76-2.47-3.07-3.25c-1.31-0.79-2.79-1.17-4.45-1.17c-1.65,0-3.13,0.38-4.45,1.17
						c-1.31,0.78-2.34,1.85-3.09,3.25c-0.74,1.39-1.11,2.98-1.11,4.72c0,1.76,0.36,3.32,1.11,4.7c0.74,1.38,1.77,2.45,3.09,3.23
						c1.31,0.78,2.8,1.17,4.45,1.17C676.06,820.98,677.54,820.58,678.85,819.8z"/>
				</g>
				<g>
					<path class="st1" d="M702.59,824.02c-1.12-0.76-1.99-1.84-2.61-3.21c-0.62-1.38-0.92-2.93-0.92-4.64V789.6
						c0-0.71,0.22-1.3,0.68-1.74c0.46-0.46,1.04-0.68,1.76-0.68c0.71,0,1.3,0.22,1.74,0.68c0.46,0.44,0.68,1.03,0.68,1.74v26.56
						c0,1.19,0.24,2.18,0.68,2.96c0.46,0.78,1.04,1.17,1.76,1.17h1.22c0.65,0,1.17,0.22,1.57,0.68c0.41,0.46,0.62,1.03,0.62,1.74
						c0,0.71-0.32,1.3-0.92,1.76c-0.62,0.46-1.42,0.68-2.39,0.68h-0.09C704.97,825.15,703.7,824.78,702.59,824.02z"/>
				</g>
				<g>
					<path class="st1" d="M757.44,800.13c2.03,1.19,3.62,2.82,4.81,4.88s1.77,4.35,1.77,6.87v10.84c0,0.71-0.24,1.31-0.7,1.79
						c-0.47,0.46-1.08,0.7-1.79,0.7c-0.71,0-1.3-0.24-1.77-0.7c-0.46-0.47-0.7-1.08-0.7-1.79v-1.79c-1.14,1.39-2.52,2.47-4.13,3.26
						c-1.63,0.78-3.37,1.16-5.26,1.16c-2.34,0-4.45-0.59-6.35-1.74c-1.9-1.17-3.39-2.79-4.48-4.84c-1.08-2.06-1.63-4.35-1.63-6.89
						c0-2.52,0.59-4.81,1.76-6.87s2.79-3.69,4.84-4.88c2.06-1.17,4.34-1.77,6.82-1.77C753.15,798.36,755.42,798.96,757.44,800.13z
						 M755.05,819.79c1.31-0.81,2.34-1.88,3.09-3.26c0.76-1.38,1.12-2.93,1.12-4.65c0-1.71-0.36-3.26-1.12-4.67
						c-0.74-1.39-1.77-2.49-3.09-3.28c-1.31-0.79-2.77-1.19-4.4-1.19c-1.61,0-3.09,0.4-4.4,1.19c-1.31,0.79-2.34,1.88-3.1,3.28
						c-0.76,1.41-1.14,2.96-1.14,4.67c0,1.73,0.38,3.28,1.14,4.65c0.76,1.38,1.79,2.45,3.1,3.26c1.31,0.79,2.79,1.19,4.4,1.19
						C752.28,820.98,753.74,820.58,755.05,819.79z"/>
				</g>
				<g>
					<path class="st1" d="M800.03,799.19c0.44,0.44,0.68,1.04,0.68,1.79v21.69c0,0.71-0.24,1.31-0.68,1.77
						c-0.46,0.47-1.06,0.71-1.8,0.71c-0.71,0-1.31-0.24-1.77-0.71c-0.47-0.46-0.71-1.06-0.71-1.77v-0.52
						c-1.03,1.03-2.26,1.84-3.69,2.41c-1.42,0.55-2.96,0.84-4.57,0.84c-2.23,0-4.24-0.47-6.03-1.46c-1.79-0.97-3.18-2.39-4.18-4.26
						c-1.01-1.85-1.5-4.1-1.5-6.73v-11.97c0-0.71,0.24-1.3,0.7-1.77c0.47-0.47,1.06-0.7,1.77-0.7s1.31,0.22,1.77,0.7
						c0.47,0.47,0.71,1.06,0.71,1.77v11.97c0,2.63,0.71,4.61,2.12,5.95s3.28,2.03,5.6,2.03c1.36,0,2.61-0.28,3.72-0.82
						c1.12-0.55,1.99-1.3,2.63-2.25c0.63-0.93,0.95-1.99,0.95-3.15v-13.72c0-0.74,0.24-1.35,0.71-1.79
						c0.46-0.46,1.06-0.68,1.77-0.68C798.96,798.51,799.57,798.74,800.03,799.19z"/>
				</g>
				<g>
					<path class="st1" d="M827.13,820.98c0.41,0.46,0.6,1.03,0.6,1.74c0,0.71-0.27,1.3-0.79,1.76c-0.54,0.46-1.23,0.68-2.07,0.68
						h-0.87c-1.6,0-3.04-0.41-4.35-1.23c-1.31-0.84-2.34-1.96-3.09-3.39c-0.74-1.42-1.12-3.02-1.12-4.81v-12.01h-2.23
						c-0.68,0-1.23-0.19-1.66-0.59c-0.41-0.38-0.63-0.87-0.63-1.46c0-0.65,0.22-1.17,0.63-1.55c0.43-0.4,0.98-0.59,1.66-0.59h2.23
						v-7c0-0.71,0.22-1.3,0.68-1.76s1.04-0.68,1.76-0.68s1.3,0.22,1.74,0.68c0.46,0.46,0.68,1.04,0.68,1.76v7h4.13
						c0.68,0,1.23,0.19,1.66,0.59c0.41,0.38,0.63,0.9,0.63,1.55c0,0.59-0.22,1.08-0.63,1.46c-0.43,0.4-0.98,0.59-1.66,0.59h-4.13
						v12.01c0,1.3,0.36,2.39,1.08,3.26c0.71,0.87,1.58,1.31,2.63,1.31h1.65C826.22,820.3,826.71,820.52,827.13,820.98z"/>
				</g>
				<g>
					<path class="st1" d="M843.78,823.62c-2.04-1.14-3.62-2.74-4.76-4.78c-1.14-2.04-1.71-4.37-1.71-6.96c0-2.63,0.57-4.95,1.71-7
						c1.14-2.04,2.72-3.64,4.76-4.8c2.04-1.14,4.35-1.73,6.95-1.73c2.56,0,4.86,0.59,6.89,1.73c2.03,1.16,3.61,2.75,4.76,4.8
						s1.73,4.37,1.73,7c0,2.6-0.57,4.92-1.69,6.96c-1.14,2.04-2.72,3.64-4.75,4.78c-2.03,1.16-4.34,1.73-6.93,1.73
						C848.13,825.34,845.82,824.78,843.78,823.62z M855.18,819.8c1.31-0.78,2.34-1.85,3.07-3.23c0.73-1.38,1.09-2.94,1.09-4.7
						c0-1.74-0.36-3.32-1.09-4.72c-0.73-1.39-1.76-2.47-3.07-3.25c-1.31-0.79-2.79-1.17-4.45-1.17c-1.65,0-3.13,0.38-4.45,1.17
						c-1.31,0.78-2.34,1.85-3.09,3.25c-0.74,1.39-1.11,2.98-1.11,4.72c0,1.76,0.36,3.32,1.11,4.7c0.74,1.38,1.77,2.45,3.09,3.23
						c1.31,0.78,2.8,1.17,4.45,1.17C852.39,820.98,853.86,820.58,855.18,819.8z"/>
				</g>
				<g>
					<path class="st1" d="M930.25,801.08c1.74,1.85,2.61,4.43,2.61,7.74v13.9c0,0.71-0.24,1.31-0.68,1.79
						c-0.46,0.46-1.06,0.7-1.8,0.7c-0.71,0-1.3-0.24-1.77-0.7c-0.47-0.47-0.7-1.08-0.7-1.79v-13.9c0-1.98-0.51-3.48-1.49-4.5
						c-1-1.03-2.31-1.54-3.97-1.54c-1.68,0-3.07,0.59-4.15,1.74c-1.09,1.17-1.63,2.66-1.63,4.48v13.71c0,0.71-0.22,1.31-0.68,1.79
						c-0.46,0.46-1.06,0.7-1.8,0.7c-0.71,0-1.3-0.24-1.77-0.7c-0.47-0.47-0.7-1.08-0.7-1.79v-13.9c0-1.98-0.51-3.48-1.49-4.5
						c-1-1.03-2.31-1.54-3.97-1.54c-1.71,0-3.12,0.59-4.19,1.74c-1.09,1.17-1.63,2.66-1.63,4.48v13.71c0,0.71-0.24,1.31-0.68,1.79
						c-0.46,0.46-1.06,0.7-1.8,0.7c-0.71,0-1.3-0.24-1.77-0.7c-0.47-0.47-0.71-1.08-0.71-1.79v-21.64c0-0.74,0.24-1.35,0.71-1.79
						c0.47-0.46,1.06-0.68,1.77-0.68s1.3,0.22,1.76,0.65c0.44,0.44,0.7,1.01,0.73,1.73c0.84-0.84,1.85-1.49,3.01-1.96
						c1.17-0.47,2.44-0.71,3.8-0.71c1.65,0,3.13,0.33,4.45,1c1.31,0.66,2.39,1.61,3.23,2.85c0.98-1.2,2.2-2.14,3.66-2.82
						c1.46-0.68,3.07-1.03,4.86-1.03C926.25,798.31,928.53,799.24,930.25,801.08z"/>
				</g>
				<g>
					<path class="st1" d="M951.05,823.62c-2.04-1.14-3.62-2.74-4.76-4.78c-1.14-2.04-1.71-4.37-1.71-6.96c0-2.63,0.57-4.95,1.71-7
						s2.72-3.64,4.76-4.8c2.04-1.14,4.35-1.73,6.95-1.73c2.56,0,4.86,0.59,6.89,1.73c2.03,1.16,3.61,2.75,4.76,4.8
						c1.16,2.04,1.73,4.37,1.73,7c0,2.6-0.57,4.92-1.69,6.96c-1.14,2.04-2.72,3.64-4.75,4.78c-2.03,1.16-4.34,1.73-6.93,1.73
						C955.41,825.34,953.1,824.78,951.05,823.62z M962.45,819.8c1.31-0.78,2.34-1.85,3.07-3.23c0.73-1.38,1.09-2.94,1.09-4.7
						c0-1.74-0.36-3.32-1.09-4.72s-1.76-2.47-3.07-3.25c-1.31-0.79-2.79-1.17-4.45-1.17c-1.65,0-3.13,0.38-4.45,1.17
						c-1.31,0.78-2.34,1.85-3.09,3.25c-0.74,1.39-1.11,2.98-1.11,4.72c0,1.76,0.36,3.32,1.11,4.7c0.74,1.38,1.77,2.45,3.09,3.23
						s2.8,1.17,4.45,1.17C959.67,820.98,961.14,820.58,962.45,819.8z"/>
				</g>
				<g>
					<path class="st1" d="M996.45,820.98c0.41,0.46,0.6,1.03,0.6,1.74c0,0.71-0.27,1.3-0.79,1.76c-0.54,0.46-1.23,0.68-2.07,0.68
						h-0.87c-1.6,0-3.04-0.41-4.35-1.23c-1.31-0.84-2.34-1.96-3.09-3.39c-0.74-1.42-1.12-3.02-1.12-4.81v-12.01h-2.23
						c-0.68,0-1.23-0.19-1.66-0.59c-0.41-0.38-0.63-0.87-0.63-1.46c0-0.65,0.22-1.17,0.63-1.55c0.43-0.4,0.98-0.59,1.66-0.59h2.23
						v-7c0-0.71,0.22-1.3,0.68-1.76s1.04-0.68,1.76-0.68s1.3,0.22,1.74,0.68c0.46,0.46,0.68,1.04,0.68,1.76v7h4.13
						c0.68,0,1.23,0.19,1.66,0.59c0.41,0.38,0.63,0.9,0.63,1.55c0,0.59-0.22,1.08-0.63,1.46c-0.43,0.4-0.98,0.59-1.66,0.59h-4.13
						v12.01c0,1.3,0.36,2.39,1.08,3.26c0.71,0.87,1.58,1.31,2.63,1.31h1.65C995.55,820.3,996.04,820.52,996.45,820.98z"/>
				</g>
				<g>
					<path class="st1" d="M1013.11,823.62c-2.04-1.14-3.62-2.74-4.76-4.78c-1.14-2.04-1.71-4.37-1.71-6.96c0-2.63,0.57-4.95,1.71-7
						c1.14-2.04,2.72-3.64,4.76-4.8c2.04-1.14,4.35-1.73,6.95-1.73c2.56,0,4.86,0.59,6.89,1.73c2.03,1.16,3.61,2.75,4.76,4.8
						s1.73,4.37,1.73,7c0,2.6-0.57,4.92-1.69,6.96c-1.14,2.04-2.72,3.64-4.75,4.78c-2.03,1.16-4.34,1.73-6.93,1.73
						C1017.46,825.34,1015.15,824.78,1013.11,823.62z M1024.5,819.8c1.31-0.78,2.34-1.85,3.07-3.23c0.73-1.38,1.09-2.94,1.09-4.7
						c0-1.74-0.36-3.32-1.09-4.72s-1.76-2.47-3.07-3.25c-1.31-0.79-2.79-1.17-4.45-1.17c-1.65,0-3.13,0.38-4.45,1.17
						c-1.31,0.78-2.34,1.85-3.09,3.25s-1.11,2.98-1.11,4.72c0,1.76,0.36,3.32,1.11,4.7c0.74,1.38,1.77,2.45,3.09,3.23
						s2.8,1.17,4.45,1.17C1021.72,820.98,1023.19,820.58,1024.5,819.8z"/>
				</g>
			</g>
			<g>
				<path class="st1" d="M1405.91,815.12h-343.06c-1.8,0-3.27-1.47-3.27-3.27c0-1.8,1.47-3.27,3.27-3.27h343.06
					c1.8,0,3.27,1.47,3.27,3.27C1409.18,813.66,1407.71,815.12,1405.91,815.12z"/>
			</g>
		</g>
	</g>
	<g>
		<g>
			<path class="st2" d="M959.96,536.09c-1.19,0-2.37-0.3-3.43-0.92l-44.55-25.73c-3.28-1.9-4.4-6.09-2.51-9.37
				c1.91-3.28,6.13-4.39,9.37-2.51l41.12,23.75l41.12-23.75c3.27-1.87,7.47-0.77,9.37,2.51c1.89,3.28,0.77,7.47-2.51,9.37
				l-44.55,25.73C962.33,535.79,961.15,536.09,959.96,536.09z"/>
		</g>
		<g>
			<path d="M854.16,430.76c0,3.42,1.82,6.58,4.78,8.29l93.02,53.7V379.83l-97.8-56.46V430.76z"/>
			<path d="M964.79,255.89c-2.96-1.71-6.61-1.71-9.57,0l-93.01,53.7l97.8,56.46l97.8-56.46L964.79,255.89z"/>
			<path d="M968.04,379.83v112.92l93.01-53.7c2.96-1.71,4.78-4.87,4.78-8.29V323.37L968.04,379.83z"/>
		</g>
	</g>
</g>
</svg>
