<?xml version="1.0" encoding="utf-8"?>
<!-- Generator: Adobe Illustrator 26.0.1, SVG Export Plug-In . SVG Version: 6.00 Build 0)  -->
<svg version="1.1" id="Layer_1" xmlns="http://www.w3.org/2000/svg" xmlns:xlink="http://www.w3.org/1999/xlink" x="0px" y="0px"
	 viewBox="0 0 1920 1080" style="enable-background:new 0 0 1920 1080;" xml:space="preserve">
<style type="text/css">
	.st0{fill:#E20613;}
</style>
<g>
	<g>
		<g>
			<path class="st0" d="M959.96,680.74c-1.19,0-2.37-0.3-3.43-0.92l-44.55-25.73c-3.28-1.9-4.4-6.09-2.51-9.37
				c1.91-3.28,6.13-4.39,9.37-2.51l41.12,23.75l41.12-23.75c3.27-1.87,7.47-0.77,9.37,2.51c1.89,3.28,0.77,7.47-2.51,9.37
				l-44.55,25.73C962.33,680.44,961.15,680.74,959.96,680.74z"/>
		</g>
		<g>
			<path d="M854.16,575.41c0,3.42,1.82,6.58,4.78,8.29l93.02,53.7V524.48l-97.8-56.46V575.41z"/>
			<path d="M964.79,400.54c-2.96-1.71-6.61-1.71-9.57,0l-93.01,53.7L960,510.7l97.8-56.46L964.79,400.54z"/>
			<path d="M968.04,524.48V637.4l93.01-53.7c2.96-1.71,4.78-4.87,4.78-8.29V468.02L968.04,524.48z"/>
		</g>
	</g>
</g>
</svg>
